PathFileType	4	(X/Y/Z)	C:\Users\T490\OneDrive\Desktop\110_Internship_Tasks\Sprint GSG Position Analysis\results\sports2d_output\sprint_video_Sports2D\sprint_video_Sports2D_px_person00.trc
DataRate	CameraRate	NumFrames	NumMarkers	Units	OrigDataRate	OrigDataStartFrame	OrigNumFrames
25.0	25.0	12	22	m	25.0	209	559
Frame#	Time	Hip			RHip			RKnee			RAnkle			RBigToe			RSmallToe			RHeel			LHip			LKnee			LAnkle			LBigToe			LSmallToe			LHeel			Neck			Head			Nose			RShoulder			RElbow			RWrist			LShoulder			LElbow			LWrist			
		X1	Y1	Z1	X2	Y2	Z2	X3	Y3	Z3	X4	Y4	Z4	X5	Y5	Z5	X6	Y6	Z6	X7	Y7	Z7	X8	Y8	Z8	X9	Y9	Z9	X10	Y10	Z10	X11	Y11	Z11	X12	Y12	Z12	X13	Y13	Z13	X14	Y14	Z14	X15	Y15	Z15	X16	Y16	Z16	X17	Y17	Z17	X18	Y18	Z18	X19	Y19	Z19	X20	Y20	Z20	X21	Y21	Z21	X22	Y22	Z22
209	8.374982078853046	988.3641422386272	514.3065165389341	0.0	980.9229899305071	529.7017579465	0.0	988.5283130177258	614.4211979087703	0.0	1083.9155929364385	628.6067633856592	0.0	1091.7308948799014	681.5502977471807	0.0	1086.7137523308386	672.9868103354503	0.0	1096.6673034343733	629.2294528003883	0.0	998.7256047913927	509.36656784103826	0.0	1076.4425074890446	586.8536320954656	0.0	1181.12999566001	637.8728309053063	0.0	1166.5757185788254	693.8923940434208	0.0	1183.8681363912622	685.213536701287	0.0	1198.5475072689098	634.960604358276	0.0	856.3545284124795	553.2347515589536	0.0	804.5020907697967	613.8127893513155	0.0	843.3327826038303	600.2601906300819	0.0	863.1137867208702	545.6747222188017	0.0	841.8275026989165	612.928112804795	0.0	811.8331708160741	660.3680244747785	0.0	853.795292490456	551.2463784383599	0.0	827.1593944586887	617.9651417713534	0.0	798.0975436148052	671.6781245951361	0.0
210	8.415053763440861	988.8944530979065	515.0197408661445	0.0	981.38068083899	528.8788896064007	0.0	988.6522221765806	615.0535533036095	0.0	1084.6084817640653	629.6613217343785	0.0	1090.477944019495	681.6929572388235	0.0	1084.8497954072898	672.8404741892124	0.0	1097.0596125419124	630.2373180496335	0.0	998.2815236354231	511.34047844634654	0.0	1074.3325833407134	591.2402755481727	0.0	1181.2666548065295	639.453195426586	0.0	1168.0162758117228	695.0539035719312	0.0	1184.5665468280433	686.393352734425	0.0	1198.411710494433	635.518899317546	0.0	856.5597757170789	553.4593577313532	0.0	803.4755765854065	614.2288891770032	0.0	843.1181475980627	600.8206322316205	0.0	862.0722296817139	544.73792811475	0.0	841.6207242124119	612.5294775768838	0.0	811.7361544973282	660.2999342187239	0.0	854.3257361783857	552.4498636922202	0.0	828.0185982264857	619.7855305949853	0.0	798.8156032291135	671.6324596389102	0.0
211	8.455125448028674	990.2765280029598	515.4255455474851	0.0	982.5547093531353	526.8846136874959	0.0	988.6183348522644	612.9273380677494	0.0	1085.964368284389	632.9802356742417	0.0	1087.7146329168975	683.1151177371786	0.0	1081.431983314767	673.1243134383465	0.0	1096.8073493621005	631.5745998322064	0.0	997.5104843979236	512.630582482042	0.0	1071.0173318574734	598.089297485436	0.0	1180.8548004552736	639.194845917657	0.0	1172.0670950541664	695.4777264447397	0.0	1185.3045295388042	687.564918078324	0.0	1197.747596684728	636.552095624991	0.0	857.2630319010314	554.496255014948	0.0	801.3122464059945	615.0297017040111	0.0	843.1319583207998	600.3179129412267	0.0	860.871825205243	544.4843042203213	0.0	841.347640856017	612.7195521675404	0.0	811.9376426478265	660.5134349814149	0.0	854.8651888644916	553.6406337838869	0.0	829.8755865599046	622.8394696131784	0.0	800.0020755583565	671.9800018315611	0.0
212	8.495197132616488	992.0669510049604	517.4203109201138	0.0	983.645382260045	528.3062619236682	0.0	988.0946852294378	613.0958871355051	0.0	1084.4177396102612	635.4806317662087	0.0	1083.9217802455516	683.6077798177714	0.0	1077.6298366887015	672.8432540668714	0.0	1094.5629280195142	631.6053216930381	0.0	998.0677384322755	514.8811826886841	0.0	1067.304234382066	607.2959410657802	0.0	1179.513146822426	638.2835920376306	0.0	1175.5240787473376	695.0856003214253	0.0	1185.9048669155602	687.1183094987274	0.0	1196.5512173506575	637.2690598037167	0.0	858.45314714507	555.9654751171475	0.0	801.2632200379824	615.4132916417344	0.0	844.1307371404462	599.7067984057785	0.0	861.8210681354574	546.4096796441662	0.0	841.429241384876	613.764258646478	0.0	812.0559882331399	660.8301157357895	0.0	855.7480241919544	553.6706285119859	0.0	832.2386463210402	624.7674715104198	0.0	800.9735511027902	672.1734897671199	0.0
213	8.535268817204301	994.0255837854768	522.2137193502265	0.0	984.0071175379969	534.8721515642324	0.0	987.5170593493926	619.8828617310085	0.0	1079.065665469378	636.1784248455439	0.0	1079.88661985393	682.1714162322561	0.0	1074.1673772583035	672.5005816024529	0.0	1091.3108939257854	631.3195416544922	0.0	1001.2024725706433	519.5258818483838	0.0	1064.1448104016924	617.0859752549997	0.0	1178.3694300255142	639.3231944333697	0.0	1175.8452455884267	694.9889188338594	0.0	1186.8842942501697	686.2028601018211	0.0	1195.7866284610318	637.5304410723808	0.0	859.6938095417087	557.4090214887073	0.0	804.4641867085936	615.6525997103276	0.0	845.8084931188698	600.7868670574704	0.0	864.8510352321102	548.5894523738881	0.0	842.1102110676673	614.7732678472687	0.0	811.5386395755676	661.6048362652795	0.0	857.894616087226	553.668513370415	0.0	833.6728137025209	624.3079545528419	0.0	800.5314316737113	672.5059806376221	0.0
214	8.575340501792114	996.4045050864363	528.1853673438573	0.0	985.1314689341682	542.3888608257531	0.0	988.0618177035321	628.0308314964292	0.0	1073.5220852515097	636.967943014351	0.0	1078.7082261038208	680.8979148324424	0.0	1073.0171465665976	672.850599818224	0.0	1089.525344807912	632.1927007186196	0.0	1005.612213026798	524.9123376057555	0.0	1062.8351192246932	625.6340271803667	0.0	1178.6147428174218	641.9848037173499	0.0	1176.0886767038214	695.0076979941954	0.0	1188.7692531590255	686.6760899395036	0.0	1195.8214379539188	637.6093303581509	0.0	860.9284815278903	558.426329229861	0.0	807.3741800535826	615.995430040084	0.0	847.0203232597252	603.0976913664912	0.0	867.5382387527064	549.0218310785865	0.0	842.7342255555948	615.0211980335771	0.0	810.1141761702589	662.4348044991423	0.0	860.3627662036782	555.0115353323051	0.0	834.1695785268297	623.2286999974668	0.0	799.0394300286754	673.0719127056929	0.0
215	8.615412186379928	999.0499929419213	532.9671709506101	0.0	987.8446769410857	547.059616105635	0.0	989.7803432116259	631.8630387163685	0.0	1070.596795973063	638.2573308700331	0.0	1081.8602524498788	681.3679255358545	0.0	1076.2576279560255	674.1559517506149	0.0	1089.112284296576	633.6795687789705	0.0	1009.304523499928	528.5094519632872	0.0	1063.1429459590872	632.4768431568806	0.0	1179.444587522988	643.9349860106363	0.0	1177.4916241281476	694.9150139213839	0.0	1189.8989600616633	687.8196156101536	0.0	1195.860912193234	637.6339372650225	0.0	862.8026715170915	558.4658710825358	0.0	808.0527459117774	615.7030058031545	0.0	847.3133923589304	604.2904281059024	0.0	869.2523595852458	548.4385876026987	0.0	842.7246948498603	615.156055976597	0.0	808.8665080021418	662.1917915877459	0.0	862.3682171392408	556.3106679044724	0.0	834.8923652386727	623.0873854832678	0.0	798.250900135346	672.813003356734	0.0
216	8.655483870967743	1001.7058431260741	535.1920011216032	0.0	990.747036771515	548.215680258693	0.0	990.0080163969343	632.2282203580585	0.0	1070.0237209595962	638.3319679904725	0.0	1085.424958797869	682.6749300655009	0.0	1082.6818807804357	675.856525085727	0.0	1088.8219423763187	633.9540641303197	0.0	1011.9888006564867	530.0842526066149	0.0	1063.2073260488899	637.5570327063518	0.0	1179.1685111121712	644.4263988429723	0.0	1177.8773420226803	695.22715190407	0.0	1189.4611389244915	688.1945907705916	0.0	1195.6071864200644	637.6828427077153	0.0	865.5863400204111	557.2815742137493	0.0	808.5176363036909	614.0348153963973	0.0	847.305967055782	603.0987288230199	0.0	871.0669824082362	547.5449435119842	0.0	842.889317634173	616.201692243437	0.0	809.0907434781798	661.9552568053613	0.0	865.2087862015028	555.677719080074	0.0	835.9791308687497	623.1737892687906	0.0	798.4134021771056	672.0923989887508	0.0
217	8.695555555555556	1004.6515920246081	534.7869790156908	0.0	993.0897320292588	546.3132115000923	0.0	988.4785424240172	631.1184581841544	0.0	1071.3551190219687	636.4707582819933	0.0	1087.5261976399415	682.9676947835876	0.0	1090.3779632128949	676.6976054705535	0.0	1090.2379361474163	631.2495380934597	0.0	1014.2153231344953	530.8077792005802	0.0	1062.2389891215757	640.9192712728375	0.0	1177.6984034025077	644.3418473792569	0.0	1177.2429436898608	695.8387102991121	0.0	1188.9455821085335	688.0348625011987	0.0	1195.1424430394034	637.7995652585228	0.0	868.4798362494412	555.0636866361704	0.0	809.7771202594486	610.9720733038934	0.0	847.7725248177036	600.4702754305097	0.0	873.0471984546231	546.0181080733507	0.0	843.8260621143977	617.4447269728101	0.0	810.3006950808435	662.6399904071818	0.0	869.3361266617585	553.3530044264753	0.0	837.1606972326194	622.4269350681433	0.0	798.7987859528666	671.8752040934496	0.0
218	8.73562724014337	1007.6252147932315	533.4616665777365	0.0	995.547993224421	543.6836381755749	0.0	994.6885270675186	629.815377302752	0.0	1074.139709699952	634.6560033094811	0.0	1090.2900266823276	682.482725904214	0.0	1097.588355733536	677.3587647108977	0.0	1094.0049453598695	627.5969079494367	0.0	1015.8836401012821	531.3303014721434	0.0	1060.890322781554	643.2314472098635	0.0	1176.3998538182946	644.2977374366878	0.0	1177.2124347484028	695.990151672315	0.0	1188.7782637774199	688.2027070387123	0.0	1193.7083198420462	637.8800808844798	0.0	870.39261655448	552.6965006701839	0.0	810.042077366063	606.3901745427369	0.0	848.3268376259783	597.645355350616	0.0	874.2119648658214	544.2794808536853	0.0	845.181841733227	617.1551822936065	0.0	811.254812315144	662.3523921739886	0.0	872.3456469607008	551.2806580608441	0.0	838.8798964219085	620.5020761194106	0.0	800.1183079914239	670.7960093658419	0.0
219	8.775698924731183	1009.3225905437764	533.4632731354667	0.0	997.9206994754147	542.7923719021136	0.0	1011.1292162701526	629.6768439925684	0.0	1074.8644908909237	635.710674171559	0.0	1093.1737186845983	682.7111908108343	0.0	1100.3558272898058	678.282724417973	0.0	1096.5395391529519	629.4436389725419	0.0	1016.603169213895	532.501336034329	0.0	1059.9085909975975	645.2183729068653	0.0	1176.1381177029386	644.2616094751041	0.0	1178.3744310163606	695.2982391293442	0.0	1188.777457466248	688.6415482918715	0.0	1191.1996446420264	637.8548212136312	0.0	870.9603959188794	551.0676981998446	0.0	807.732726044751	598.9007666284422	0.0	847.5095929780847	593.6118108794374	0.0	874.2238894644701	542.8134887376043	0.0	847.5000922902905	615.2992457339665	0.0	812.6764038768384	660.7936664271915	0.0	872.4232827649996	551.0448342095416	0.0	840.0454669459251	618.1469076653509	0.0	801.9151706892555	669.0127233145807	0.0
220	8.815770609318996	1009.3815195367963	535.3562651364207	0.0	999.3587958700158	543.0857930632599	0.0	1012.160315945383	630.0475462116117	0.0	1069.2182294529077	639.3216201888923	0.0	1094.7260224858678	681.9888530955957	0.0	1098.0688145239908	675.423325903803	0.0	1094.7549128372534	638.5154959100552	0.0	1017.1501642259277	535.0328476855266	0.0	1059.5579052425824	647.4137877237913	0.0	1176.5187263855976	644.177543751591	0.0	1179.8348854058977	694.0244968404985	0.0	1189.3499695575572	688.4841170354774	0.0	1189.7316258477836	637.7113290916151	0.0	870.2810927846002	548.9268625297401	0.0	803.8302710579051	588.1586742082725	0.0	845.4202043739241	586.9284243409396	0.0	874.2649887554312	540.2471524649026	0.0	852.6776774712293	612.7130684075622	0.0	817.8536091641488	660.2287584921002	0.0	871.1857257889085	551.1251545379284	0.0	838.07334766513	616.7675288091565	0.0	800.8293482963861	669.5803909557299	0.0
